<svg xmlns="http://www.w3.org/2000/svg" viewBox="0 0 636 178" width="636" height="178">
<style>
svg{--surface:#000000;--ink:#ffffff;--ink2:#bfbfbf;--muted:#7a7a7a;--grid:#232323;--axis:#3d3d3d;--accent:#d2ff00;}
.t{font-family:ui-monospace,SFMono-Regular,Menlo,Consolas,monospace;fill:var(--ink)}
.t2{font-family:ui-monospace,SFMono-Regular,Menlo,Consolas,monospace;fill:var(--ink2)}
.tm{font-family:ui-monospace,SFMono-Regular,Menlo,Consolas,monospace;fill:var(--muted);font-variant-numeric:tabular-nums}
.px{shape-rendering:crispEdges}
.grid{stroke:var(--grid);stroke-width:1;stroke-dasharray:3 3;shape-rendering:crispEdges}
.axis{stroke:var(--axis);stroke-width:2;shape-rendering:crispEdges}
</style>
<rect class="px" width="636" height="178" fill="var(--surface)"/>
<rect class="px" x="1" y="1" width="634" height="176" fill="none" stroke="var(--axis)" stroke-width="2"/>
<text class="t" x="56" y="24" font-size="15" font-weight="700" letter-spacing="2">DAILY TOKENS</text>
<text class="t2" x="56" y="42" font-size="10.5">AUG 16, 2026 - SEP 14, 2026  ·  101.4M TOKENS OVER 30 DAYS  ·  1 ACTIVE  ·  1 BLOCK = 20M</text>
<line class="grid" x1="56" y1="124" x2="620" y2="124"/>
<text class="tm" x="48" y="127" font-size="9.5" text-anchor="end">50M</text>
<line class="grid" x1="56" y1="104" x2="620" y2="104"/>
<text class="tm" x="48" y="107" font-size="9.5" text-anchor="end">100M</text>
<line class="grid" x1="56" y1="84" x2="620" y2="84"/>
<text class="tm" x="48" y="87" font-size="9.5" text-anchor="end">150M</text>
<line class="grid" x1="56" y1="64" x2="620" y2="64"/>
<text class="tm" x="48" y="67" font-size="9.5" text-anchor="end">200M</text>
<text class="tm" x="48" y="147" font-size="9.5" text-anchor="end">0</text>
<line class="axis" x1="56" y1="144" x2="620" y2="144"/>
<rect class="px" x="56" y="146" width="6" height="4" fill="var(--grid)"/>
<rect class="px" x="62" y="146" width="6" height="4" fill="var(--axis)"/>
<rect class="px" x="68" y="146" width="6" height="4" fill="var(--grid)"/>
<rect class="px" x="74" y="146" width="6" height="4" fill="var(--axis)"/>
<rect class="px" x="80" y="146" width="6" height="4" fill="var(--grid)"/>
<rect class="px" x="86" y="146" width="6" height="4" fill="var(--axis)"/>
<rect class="px" x="92" y="146" width="6" height="4" fill="var(--grid)"/>
<rect class="px" x="98" y="146" width="6" height="4" fill="var(--axis)"/>
<rect class="px" x="104" y="146" width="6" height="4" fill="var(--grid)"/>
<rect class="px" x="110" y="146" width="6" height="4" fill="var(--axis)"/>
<rect class="px" x="116" y="146" width="6" height="4" fill="var(--grid)"/>
<rect class="px" x="122" y="146" width="6" height="4" fill="var(--axis)"/>
<rect class="px" x="128" y="146" width="6" height="4" fill="var(--grid)"/>
<rect class="px" x="134" y="146" width="6" height="4" fill="var(--axis)"/>
<rect class="px" x="140" y="146" width="6" height="4" fill="var(--grid)"/>
<rect class="px" x="146" y="146" width="6" height="4" fill="var(--axis)"/>
<rect class="px" x="152" y="146" width="6" height="4" fill="var(--grid)"/>
<rect class="px" x="158" y="146" width="6" height="4" fill="var(--axis)"/>
<rect class="px" x="164" y="146" width="6" height="4" fill="var(--grid)"/>
<rect class="px" x="170" y="146" width="6" height="4" fill="var(--axis)"/>
<rect class="px" x="176" y="146" width="6" height="4" fill="var(--grid)"/>
<rect class="px" x="182" y="146" width="6" height="4" fill="var(--axis)"/>
<rect class="px" x="188" y="146" width="6" height="4" fill="var(--grid)"/>
<rect class="px" x="194" y="146" width="6" height="4" fill="var(--axis)"/>
<rect class="px" x="200" y="146" width="6" height="4" fill="var(--grid)"/>
<rect class="px" x="206" y="146" width="6" height="4" fill="var(--axis)"/>
<rect class="px" x="212" y="146" width="6" height="4" fill="var(--grid)"/>
<rect class="px" x="218" y="146" width="6" height="4" fill="var(--axis)"/>
<rect class="px" x="224" y="146" width="6" height="4" fill="var(--grid)"/>
<rect class="px" x="230" y="146" width="6" height="4" fill="var(--axis)"/>
<rect class="px" x="236" y="146" width="6" height="4" fill="var(--grid)"/>
<rect class="px" x="242" y="146" width="6" height="4" fill="var(--axis)"/>
<rect class="px" x="248" y="146" width="6" height="4" fill="var(--grid)"/>
<rect class="px" x="254" y="146" width="6" height="4" fill="var(--axis)"/>
<rect class="px" x="260" y="146" width="6" height="4" fill="var(--grid)"/>
<rect class="px" x="266" y="146" width="6" height="4" fill="var(--axis)"/>
<rect class="px" x="272" y="146" width="6" height="4" fill="var(--grid)"/>
<rect class="px" x="278" y="146" width="6" height="4" fill="var(--axis)"/>
<rect class="px" x="284" y="146" width="6" height="4" fill="var(--grid)"/>
<rect class="px" x="290" y="146" width="6" height="4" fill="var(--axis)"/>
<rect class="px" x="296" y="146" width="6" height="4" fill="var(--grid)"/>
<rect class="px" x="302" y="146" width="6" height="4" fill="var(--axis)"/>
<rect class="px" x="308" y="146" width="6" height="4" fill="var(--grid)"/>
<rect class="px" x="314" y="146" width="6" height="4" fill="var(--axis)"/>
<rect class="px" x="320" y="146" width="6" height="4" fill="var(--grid)"/>
<rect class="px" x="326" y="146" width="6" height="4" fill="var(--axis)"/>
<rect class="px" x="332" y="146" width="6" height="4" fill="var(--grid)"/>
<rect class="px" x="338" y="146" width="6" height="4" fill="var(--axis)"/>
<rect class="px" x="344" y="146" width="6" height="4" fill="var(--grid)"/>
<rect class="px" x="350" y="146" width="6" height="4" fill="var(--axis)"/>
<rect class="px" x="356" y="146" width="6" height="4" fill="var(--grid)"/>
<rect class="px" x="362" y="146" width="6" height="4" fill="var(--axis)"/>
<rect class="px" x="368" y="146" width="6" height="4" fill="var(--grid)"/>
<rect class="px" x="374" y="146" width="6" height="4" fill="var(--axis)"/>
<rect class="px" x="380" y="146" width="6" height="4" fill="var(--grid)"/>
<rect class="px" x="386" y="146" width="6" height="4" fill="var(--axis)"/>
<rect class="px" x="392" y="146" width="6" height="4" fill="var(--grid)"/>
<rect class="px" x="398" y="146" width="6" height="4" fill="var(--axis)"/>
<rect class="px" x="404" y="146" width="6" height="4" fill="var(--grid)"/>
<rect class="px" x="410" y="146" width="6" height="4" fill="var(--axis)"/>
<rect class="px" x="416" y="146" width="6" height="4" fill="var(--grid)"/>
<rect class="px" x="422" y="146" width="6" height="4" fill="var(--axis)"/>
<rect class="px" x="428" y="146" width="6" height="4" fill="var(--grid)"/>
<rect class="px" x="434" y="146" width="6" height="4" fill="var(--axis)"/>
<rect class="px" x="440" y="146" width="6" height="4" fill="var(--grid)"/>
<rect class="px" x="446" y="146" width="6" height="4" fill="var(--axis)"/>
<rect class="px" x="452" y="146" width="6" height="4" fill="var(--grid)"/>
<rect class="px" x="458" y="146" width="6" height="4" fill="var(--axis)"/>
<rect class="px" x="464" y="146" width="6" height="4" fill="var(--grid)"/>
<rect class="px" x="470" y="146" width="6" height="4" fill="var(--axis)"/>
<rect class="px" x="476" y="146" width="6" height="4" fill="var(--grid)"/>
<rect class="px" x="482" y="146" width="6" height="4" fill="var(--axis)"/>
<rect class="px" x="488" y="146" width="6" height="4" fill="var(--grid)"/>
<rect class="px" x="494" y="146" width="6" height="4" fill="var(--axis)"/>
<rect class="px" x="500" y="146" width="6" height="4" fill="var(--grid)"/>
<rect class="px" x="506" y="146" width="6" height="4" fill="var(--axis)"/>
<rect class="px" x="512" y="146" width="6" height="4" fill="var(--grid)"/>
<rect class="px" x="518" y="146" width="6" height="4" fill="var(--axis)"/>
<rect class="px" x="524" y="146" width="6" height="4" fill="var(--grid)"/>
<rect class="px" x="530" y="146" width="6" height="4" fill="var(--axis)"/>
<rect class="px" x="536" y="146" width="6" height="4" fill="var(--grid)"/>
<rect class="px" x="542" y="146" width="6" height="4" fill="var(--axis)"/>
<rect class="px" x="548" y="146" width="6" height="4" fill="var(--grid)"/>
<rect class="px" x="554" y="146" width="6" height="4" fill="var(--axis)"/>
<rect class="px" x="560" y="146" width="6" height="4" fill="var(--grid)"/>
<rect class="px" x="566" y="146" width="6" height="4" fill="var(--axis)"/>
<rect class="px" x="572" y="146" width="6" height="4" fill="var(--grid)"/>
<rect class="px" x="578" y="146" width="6" height="4" fill="var(--axis)"/>
<rect class="px" x="584" y="146" width="6" height="4" fill="var(--grid)"/>
<rect class="px" x="590" y="146" width="6" height="4" fill="var(--axis)"/>
<rect class="px" x="596" y="146" width="6" height="4" fill="var(--grid)"/>
<rect class="px" x="602" y="146" width="6" height="4" fill="var(--axis)"/>
<rect class="px" x="608" y="146" width="6" height="4" fill="var(--grid)"/>
<rect class="px" x="614" y="146" width="6" height="4" fill="var(--axis)"/>
<text class="tm" x="62.5" y="162" font-size="8.5" text-anchor="middle">08/16</text>
<text class="tm" x="157.5" y="162" font-size="8.5" text-anchor="middle">08/21</text>
<text class="tm" x="252.5" y="162" font-size="8.5" text-anchor="middle">08/26</text>
<text class="tm" x="347.5" y="162" font-size="8.5" text-anchor="middle">08/31</text>
<text class="tm" x="442.5" y="162" font-size="8.5" text-anchor="middle">09/05</text>
<text class="tm" x="537.5" y="162" font-size="8.5" text-anchor="middle">09/10</text>
<rect class="px" x="607" y="106" width="13" height="38" fill="var(--accent)" fill-opacity="0.18" stroke="var(--ink)" stroke-width="1" stroke-dasharray="2 2"/>
<text class="t" x="620" y="92" font-size="9.5" font-weight="700" text-anchor="end">101,390,392</text>
<text class="t2" x="620" y="103" font-size="8" text-anchor="end">today · in progress</text>
<text class="tm" x="613.5" y="162" font-size="8.5" text-anchor="middle">09/14</text>
</svg>
